<?xml version="1.0" encoding="utf-8"?>
<!-- Generator: Adobe Illustrator 23.0.1, SVG Export Plug-In . SVG Version: 6.00 Build 0)  -->
<svg version="1.1" id="Ebene_1" xmlns="http://www.w3.org/2000/svg" xmlns:xlink="http://www.w3.org/1999/xlink" x="0px" y="0px"
	 viewBox="0 0 416.61 99.83" style="enable-background:new 0 0 416.61 99.83;" xml:space="preserve">
<style type="text/css">
	.st0{fill-rule:evenodd;clip-rule:evenodd;fill:#164194;}
	.st1{fill-rule:evenodd;clip-rule:evenodd;fill:#FFED00;}
	.st2{fill:#164194;}
	.st3{fill:#FFED00;}
</style>
<polygon class="st0" points="257.73,12.71 255.8,17.33 260.81,14.64 265.05,17.33 263.89,12.71 268.52,9.82 263.31,9.82 
	262.16,5.01 259.66,9.82 254.26,9.82 257.73,12.71 "/>
<polygon class="st0" points="234.04,19.84 231.92,24.46 237.12,21.57 241.36,24.46 240.01,19.84 244.82,16.76 239.62,16.76 
	238.28,12.13 235.77,16.76 230.57,16.76 234.04,19.84 "/>
<polygon class="st0" points="216.51,34.28 214.39,38.91 219.59,36.02 223.83,38.91 222.48,34.28 227.3,31.2 222.1,31.2 
	220.75,26.58 218.25,31.2 213.04,31.2 216.51,34.28 "/>
<polygon class="st0" points="206.69,56.82 204.76,61.44 209.77,58.55 214.01,61.44 212.85,56.82 217.47,53.74 212.28,53.74 
	211.12,49.11 208.62,53.74 203.22,53.74 206.69,56.82 "/>
<polygon class="st0" points="211.31,77.81 209.19,82.43 214.39,79.74 218.63,82.43 217.28,77.81 222.1,74.92 216.9,74.92 
	215.55,70.11 213.04,74.92 207.85,74.92 211.31,77.81 "/>
<polygon class="st0" points="226.91,92.26 224.99,96.88 229.99,94.18 234.23,96.88 233.08,92.26 237.7,89.17 232.5,89.17 
	231.34,84.55 228.84,89.17 223.45,89.17 226.91,92.26 "/>
<polygon class="st0" points="249.06,97.46 247.14,102.08 252.14,99.38 256.38,102.08 255.23,97.46 259.85,94.57 254.65,94.57 
	253.49,89.75 250.99,94.57 245.6,94.57 249.06,97.46 "/>
<polygon class="st0" points="273.52,89.95 271.4,94.57 276.61,91.87 280.84,94.57 279.49,89.95 284.31,86.86 279.11,86.86 
	277.76,82.24 275.26,86.86 270.06,86.86 273.52,89.95 "/>
<polygon class="st0" points="291.82,74.15 289.89,78.77 294.9,76.08 299.14,78.77 297.98,74.15 302.61,71.26 297.41,71.26 
	296.25,66.45 293.75,71.26 288.35,71.26 291.82,74.15 "/>
<polygon class="st0" points="298.95,53.93 296.83,58.55 302.03,55.66 306.27,58.55 304.92,53.93 309.73,50.85 304.53,50.85 
	303.18,46.22 300.68,50.85 295.48,50.85 298.95,53.93 "/>
<polygon class="st0" points="295.29,33.32 293.36,37.94 298.37,35.25 302.61,37.94 301.45,33.32 306.07,30.24 300.87,30.24 
	299.72,25.62 297.21,30.24 291.82,30.24 295.29,33.32 "/>
<polygon class="st0" points="279.88,17.72 277.76,22.34 282.77,19.65 287.2,22.34 285.85,17.72 290.47,14.83 285.46,14.83 
	284.12,10.02 281.61,14.83 276.22,14.83 279.88,17.72 "/>
<polygon class="st1" points="265.63,7.7 263.51,12.33 268.52,9.63 272.95,12.33 271.6,7.7 276.22,4.62 271.21,4.62 269.86,0 
	267.36,4.62 261.97,4.62 265.63,7.7 "/>
<polygon class="st1" points="241.74,14.83 239.62,19.45 244.82,16.76 249.06,19.45 247.71,14.83 252.53,11.94 247.33,11.94 
	246.17,7.13 243.67,11.94 238.28,11.94 241.74,14.83 "/>
<polygon class="st1" points="224.22,29.08 222.29,33.71 227.3,31.01 231.54,33.71 230.38,29.08 235,26.19 229.8,26.19 228.65,21.38 
	226.14,26.19 220.75,26.19 224.22,29.08 "/>
<polygon class="st1" points="214.59,51.62 212.47,56.24 217.47,53.54 221.91,56.24 220.56,51.62 225.18,48.73 220.17,48.73 
	218.82,43.91 216.32,48.73 210.93,48.73 214.59,51.62 "/>
<polygon class="st1" points="219.02,73 216.9,77.62 222.1,74.92 226.34,77.62 225.18,73 229.8,69.91 224.6,69.91 223.45,65.29 
	220.94,69.91 215.55,69.91 219.02,73 "/>
<polygon class="st1" points="234.81,87.44 232.69,92.06 237.7,89.17 241.94,92.06 240.78,87.44 245.4,84.36 240.2,84.36 
	239.05,79.74 236.54,84.36 231.15,84.36 234.81,87.44 "/>
<polygon class="st1" points="256.96,92.45 254.84,97.07 260.04,94.38 264.28,97.07 262.93,92.45 267.55,89.37 262.54,89.37 
	261.2,84.75 258.69,89.37 253.3,89.37 256.96,92.45 "/>
<polygon class="st1" points="281.23,85.13 279.11,89.75 284.31,86.86 288.55,89.75 287.39,85.13 292.01,82.05 286.81,82.05 
	285.66,77.43 283.15,82.05 277.76,82.05 281.23,85.13 "/>
<polygon class="st1" points="299.72,69.14 297.6,73.77 302.61,71.07 307.04,73.77 305.69,69.14 310.31,66.25 305.3,66.25 
	303.96,61.44 301.45,66.25 296.06,66.25 299.72,69.14 "/>
<polygon class="st1" points="306.65,48.92 304.53,53.54 309.73,50.85 313.97,53.54 312.81,48.92 317.44,46.03 312.24,46.03 
	311.08,41.22 308.58,46.03 303.18,46.03 306.65,48.92 "/>
<polygon class="st1" points="302.8,28.31 300.87,32.94 305.88,30.05 310.12,32.94 308.96,28.31 313.58,25.23 308.38,25.23 
	307.23,20.61 304.72,25.23 299.33,25.23 302.8,28.31 "/>
<polygon class="st1" points="287.58,12.71 285.46,17.33 290.66,14.64 294.9,17.33 293.55,12.71 298.37,9.82 293.17,9.82 
	291.82,5.01 289.32,9.82 284.12,9.82 287.58,12.71 "/>
<g>
	<path class="st2" d="M155.78,99.83l14.43-70.68h-17.99l3.65-17.88h53.75l-3.65,17.88h-17.88l-14.43,70.68H155.78z"/>
	<polygon class="st2" points="51.65,81.91 21.54,81.91 25.09,64.49 55.21,64.49 58.85,46.62 28.74,46.62 32.29,29.25 62.4,29.25 
		66.07,11.27 18.07,11.27 0,99.83 47.99,99.83 	"/>
	<path class="st0" d="M128.07,11.27l-11.55,56.61c-1.86,8.55-8.83,14.36-17.29,14.36c-7.93,0-13.05-6.43-11.43-14.36l11.55-56.61
		h-17.9L69.97,67.52c-3.64,17.84,7.87,32.31,25.71,32.31c19.91,0,34.16-10.83,38.9-32.31l11.48-56.25H128.07z"/>
	<path class="st0" d="M366.48,11.34l-38-0.07l-0.01,0.07l-18.06,88.49h17.88l7.2-35.28h20.13c14.69,0,29.04-11.91,32.04-26.61
		C390.66,23.25,381.17,11.34,366.48,11.34z M358.7,46.61h-19.55l3.56-17.47h19.55c4.82,0,7.94,3.91,6.95,8.73
		C368.24,42.7,363.53,46.61,358.7,46.61z"/>
</g>
<g>
	<path class="st3" d="M162.75,94.36l14.43-70.68h-17.99l3.65-17.88h53.75l-3.65,17.88h-17.88l-14.43,70.68H162.75z"/>
	<path class="st1" d="M373.45,5.86l-38-0.07l-0.01,0.07l-18.06,88.49h17.88l7.2-35.28h20.13c14.69,0,29.04-11.91,32.04-26.61
		C397.63,17.78,388.14,5.86,373.45,5.86z M365.67,41.14h-19.55l3.56-17.47h19.55c4.82,0,7.94,3.91,6.95,8.73
		C375.21,37.23,370.5,41.14,365.67,41.14z"/>
</g>
<g>
	<path class="st2" d="M407.77,11.26c1.48,0,2.93,0.38,4.35,1.14c1.41,0.76,2.52,1.85,3.3,3.27c0.79,1.42,1.18,2.9,1.18,4.44
		c0,1.52-0.39,2.99-1.17,4.39c-0.78,1.41-1.87,2.5-3.27,3.28c-1.4,0.78-2.87,1.17-4.4,1.17c-1.53,0-3-0.39-4.4-1.17
		c-1.4-0.78-2.49-1.87-3.28-3.28c-0.78-1.41-1.17-2.87-1.17-4.39c0-1.54,0.4-3.02,1.19-4.44c0.79-1.42,1.9-2.51,3.31-3.27
		C404.84,11.64,406.29,11.26,407.77,11.26z M407.77,12.73c-1.24,0-2.45,0.32-3.63,0.96c-1.18,0.64-2.1,1.55-2.76,2.73
		c-0.66,1.18-1,2.42-1,3.7c0,1.27,0.33,2.49,0.98,3.66c0.65,1.17,1.56,2.08,2.74,2.73c1.17,0.65,2.39,0.98,3.67,0.98
		c1.27,0,2.5-0.33,3.67-0.98c1.17-0.65,2.08-1.56,2.73-2.73c0.65-1.17,0.97-2.39,0.97-3.66c0-1.28-0.33-2.51-0.99-3.7
		c-0.66-1.18-1.58-2.09-2.76-2.73C410.21,13.05,409.01,12.73,407.77,12.73z M403.89,25v-9.52h3.27c1.12,0,1.93,0.09,2.43,0.26
		c0.5,0.18,0.9,0.48,1.2,0.92c0.3,0.44,0.45,0.9,0.45,1.39c0,0.7-0.25,1.3-0.74,1.82c-0.5,0.52-1.15,0.8-1.97,0.87
		c0.34,0.14,0.61,0.31,0.81,0.5c0.38,0.38,0.85,1,1.41,1.89l1.16,1.86h-1.88l-0.84-1.5c-0.66-1.18-1.2-1.92-1.61-2.21
		c-0.28-0.22-0.69-0.33-1.23-0.33h-0.9V25H403.89z M405.43,19.64h1.86c0.89,0,1.5-0.13,1.82-0.4c0.32-0.27,0.49-0.62,0.49-1.05
		c0-0.28-0.08-0.53-0.23-0.76c-0.16-0.22-0.37-0.39-0.65-0.5c-0.28-0.11-0.79-0.16-1.54-0.16h-1.75V19.64z"/>
</g>
</svg>
